<svg width="32" height="32" viewBox="0 0 32 32" fill="none" xmlns="http://www.w3.org/2000/svg">
<path d="M27.9999 15.9999C27.9999 16.2652 27.8946 16.5195 27.7071 16.7071C27.5195 16.8946 27.2652 16.9999 26.9999 16.9999H15.9999C15.7347 16.9999 15.4804 16.8946 15.2928 16.7071C15.1053 16.5195 14.9999 16.2652 14.9999 15.9999C14.9999 15.7347 15.1053 15.4804 15.2928 15.2928C15.4804 15.1053 15.7347 14.9999 15.9999 14.9999H26.9999C27.2652 14.9999 27.5195 15.1053 27.7071 15.2928C27.8946 15.4804 27.9999 15.7347 27.9999 15.9999ZM15.9999 8.99995H26.9999C27.2652 8.99995 27.5195 8.89459 27.7071 8.70705C27.8946 8.51952 27.9999 8.26516 27.9999 7.99995C27.9999 7.73473 27.8946 7.48038 27.7071 7.29284C27.5195 7.1053 27.2652 6.99995 26.9999 6.99995H15.9999C15.7347 6.99995 15.4804 7.1053 15.2928 7.29284C15.1053 7.48038 14.9999 7.73473 14.9999 7.99995C14.9999 8.26516 15.1053 8.51952 15.2928 8.70705C15.4804 8.89459 15.7347 8.99995 15.9999 8.99995ZM26.9999 22.9999H15.9999C15.7347 22.9999 15.4804 23.1053 15.2928 23.2928C15.1053 23.4804 14.9999 23.7347 14.9999 23.9999C14.9999 24.2652 15.1053 24.5195 15.2928 24.7071C15.4804 24.8946 15.7347 24.9999 15.9999 24.9999H26.9999C27.2652 24.9999 27.5195 24.8946 27.7071 24.7071C27.8946 24.5195 27.9999 24.2652 27.9999 23.9999C27.9999 23.7347 27.8946 23.4804 27.7071 23.2928C27.5195 23.1053 27.2652 22.9999 26.9999 22.9999ZM10.2924 5.29245L6.99995 8.5862L5.70745 7.29245C5.5198 7.1048 5.26531 6.99939 4.99995 6.99939C4.73458 6.99939 4.48009 7.1048 4.29245 7.29245C4.1048 7.48009 3.99939 7.73458 3.99939 7.99995C3.99939 8.26531 4.1048 8.51981 4.29245 8.70745L6.29245 10.7074C6.38532 10.8004 6.49561 10.8742 6.61701 10.9245C6.7384 10.9748 6.86853 11.0007 6.99995 11.0007C7.13136 11.0007 7.26149 10.9748 7.38289 10.9245C7.50428 10.8742 7.61457 10.8004 7.70745 10.7074L11.7074 6.70745C11.8951 6.5198 12.0005 6.26531 12.0005 5.99995C12.0005 5.73458 11.8951 5.48009 11.7074 5.29245C11.5198 5.1048 11.2653 4.99939 10.9999 4.99939C10.7346 4.99939 10.4801 5.1048 10.2924 5.29245ZM10.2924 13.2924L6.99995 16.5862L5.70745 15.2924C5.5198 15.1048 5.26531 14.9994 4.99995 14.9994C4.73458 14.9994 4.48009 15.1048 4.29245 15.2924C4.1048 15.4801 3.99939 15.7346 3.99939 15.9999C3.99939 16.1313 4.02527 16.2614 4.07555 16.3828C4.12584 16.5042 4.19954 16.6145 4.29245 16.7074L6.29245 18.7074C6.38532 18.8004 6.49561 18.8742 6.61701 18.9245C6.7384 18.9748 6.86853 19.0007 6.99995 19.0007C7.13136 19.0007 7.26149 18.9748 7.38289 18.9245C7.50428 18.8742 7.61457 18.8004 7.70745 18.7074L11.7074 14.7074C11.8951 14.5198 12.0005 14.2653 12.0005 13.9999C12.0005 13.7346 11.8951 13.4801 11.7074 13.2924C11.5198 13.1048 11.2653 12.9994 10.9999 12.9994C10.7346 12.9994 10.4801 13.1048 10.2924 13.2924ZM10.2924 21.2924L6.99995 24.5862L5.70745 23.2924C5.61454 23.1995 5.50424 23.1258 5.38284 23.0756C5.26145 23.0253 5.13134 22.9994 4.99995 22.9994C4.86855 22.9994 4.73844 23.0253 4.61705 23.0756C4.49566 23.1258 4.38536 23.1995 4.29245 23.2924C4.19954 23.3854 4.12584 23.4957 4.07555 23.6171C4.02527 23.7384 3.99939 23.8686 3.99939 23.9999C3.99939 24.1313 4.02527 24.2614 4.07555 24.3828C4.12584 24.5042 4.19954 24.6145 4.29245 24.7074L6.29245 26.7074C6.38532 26.8004 6.49561 26.8742 6.61701 26.9245C6.7384 26.9748 6.86853 27.0007 6.99995 27.0007C7.13136 27.0007 7.26149 26.9748 7.38289 26.9245C7.50428 26.8742 7.61457 26.8004 7.70745 26.7074L11.7074 22.7074C11.8951 22.5198 12.0005 22.2653 12.0005 21.9999C12.0005 21.7346 11.8951 21.4801 11.7074 21.2924C11.5198 21.1048 11.2653 20.9994 10.9999 20.9994C10.7346 20.9994 10.4801 21.1048 10.2924 21.2924Z" fill="black"/>
</svg>
