<svg width="33" height="32" viewBox="0 0 33 32" fill="none" xmlns="http://www.w3.org/2000/svg">
<path d="M4.72998 10C4.72998 9.73478 4.83534 9.48043 5.02287 9.29289C5.21041 9.10536 5.46476 9 5.72998 9H9.72998C9.9952 9 10.2496 9.10536 10.4371 9.29289C10.6246 9.48043 10.73 9.73478 10.73 10C10.73 10.2652 10.6246 10.5196 10.4371 10.7071C10.2496 10.8946 9.9952 11 9.72998 11H5.72998C5.46476 11 5.21041 10.8946 5.02287 10.7071C4.83534 10.5196 4.72998 10.2652 4.72998 10ZM27.73 21H22.73V19C22.73 18.7348 22.6246 18.4804 22.4371 18.2929C22.2496 18.1054 21.9952 18 21.73 18C21.4648 18 21.2104 18.1054 21.0229 18.2929C20.8353 18.4804 20.73 18.7348 20.73 19V25C20.73 25.2652 20.8353 25.5196 21.0229 25.7071C21.2104 25.8946 21.4648 26 21.73 26C21.9952 26 22.2496 25.8946 22.4371 25.7071C22.6246 25.5196 22.73 25.2652 22.73 25V23H27.73C27.9952 23 28.2496 22.8946 28.4371 22.7071C28.6246 22.5196 28.73 22.2652 28.73 22C28.73 21.7348 28.6246 21.4804 28.4371 21.2929C28.2496 21.1054 27.9952 21 27.73 21ZM17.73 21H5.72998C5.46476 21 5.21041 21.1054 5.02287 21.2929C4.83534 21.4804 4.72998 21.7348 4.72998 22C4.72998 22.2652 4.83534 22.5196 5.02287 22.7071C5.21041 22.8946 5.46476 23 5.72998 23H17.73C17.9952 23 18.2496 22.8946 18.4371 22.7071C18.6246 22.5196 18.73 22.2652 18.73 22C18.73 21.7348 18.6246 21.4804 18.4371 21.2929C18.2496 21.1054 17.9952 21 17.73 21ZM13.73 14C13.9952 14 14.2496 13.8946 14.4371 13.7071C14.6246 13.5196 14.73 13.2652 14.73 13V11H27.73C27.9952 11 28.2496 10.8946 28.4371 10.7071C28.6246 10.5196 28.73 10.2652 28.73 10C28.73 9.73478 28.6246 9.48043 28.4371 9.29289C28.2496 9.10536 27.9952 9 27.73 9H14.73V7C14.73 6.73478 14.6246 6.48043 14.4371 6.29289C14.2496 6.10536 13.9952 6 13.73 6C13.4648 6 13.2104 6.10536 13.0229 6.29289C12.8353 6.48043 12.73 6.73478 12.73 7V13C12.73 13.2652 12.8353 13.5196 13.0229 13.7071C13.2104 13.8946 13.4648 14 13.73 14Z" fill="black"/>
</svg>
