<svg width="32" height="32" viewBox="0 0 32 32" fill="none" xmlns="http://www.w3.org/2000/svg">
<g clip-path="url(#clip0_1_332)">
<path d="M32 17C32 17.2652 31.8947 17.5196 31.7071 17.7071C31.5196 17.8946 31.2653 18 31 18H29V20C29 20.2652 28.8947 20.5196 28.7071 20.7071C28.5196 20.8946 28.2653 21 28 21C27.7348 21 27.4805 20.8946 27.2929 20.7071C27.1054 20.5196 27 20.2652 27 20V18H25C24.7348 18 24.4805 17.8946 24.2929 17.7071C24.1054 17.5196 24 17.2652 24 17C24 16.7348 24.1054 16.4804 24.2929 16.2929C24.4805 16.1054 24.7348 16 25 16H27V14C27 13.7348 27.1054 13.4804 27.2929 13.2929C27.4805 13.1054 27.7348 13 28 13C28.2653 13 28.5196 13.1054 28.7071 13.2929C28.8947 13.4804 29 13.7348 29 14V16H31C31.2653 16 31.5196 16.1054 31.7071 16.2929C31.8947 16.4804 32 16.7348 32 17ZM24.7663 24.3562C24.937 24.5595 25.02 24.8222 24.9971 25.0866C24.9741 25.351 24.847 25.5955 24.6438 25.7662C24.4406 25.937 24.1778 26.02 23.9134 25.997C23.649 25.974 23.4045 25.847 23.2338 25.6437C20.7188 22.6487 17.2613 21 13.5 21C9.73879 21 6.28129 22.6487 3.76629 25.6437C3.59556 25.8468 3.35115 25.9737 3.08685 25.9966C2.82254 26.0194 2.55997 25.9364 2.35692 25.7656C2.15386 25.5949 2.02694 25.3505 2.00409 25.0862C1.98123 24.8219 2.06431 24.5593 2.23504 24.3562C4.10254 22.1337 6.42504 20.555 9.00629 19.71C7.43867 18.7336 6.23169 17.2733 5.56796 15.5498C4.90423 13.8264 4.81985 11.9337 5.3276 10.1581C5.83535 8.38242 6.9076 6.82045 8.38213 5.70847C9.85665 4.59649 11.6532 3.995 13.5 3.995C15.3469 3.995 17.1434 4.59649 18.618 5.70847C20.0925 6.82045 21.1647 8.38242 21.6725 10.1581C22.1802 11.9337 22.0959 13.8264 21.4321 15.5498C20.7684 17.2733 19.5614 18.7336 17.9938 19.71C20.575 20.555 22.8975 22.1337 24.7663 24.3562ZM13.5 19C14.7856 19 16.0423 18.6188 17.1112 17.9045C18.1802 17.1903 19.0133 16.1752 19.5053 14.9874C19.9972 13.7997 20.1259 12.4928 19.8751 11.2319C19.6243 9.97103 19.0053 8.81284 18.0962 7.9038C17.1872 6.99476 16.029 6.37569 14.7681 6.12489C13.5073 5.87409 12.2003 6.00281 11.0126 6.49478C9.82488 6.98675 8.80972 7.81987 8.09549 8.88879C7.38126 9.95771 7.00004 11.2144 7.00004 12.5C7.00203 14.2233 7.68748 15.8754 8.90604 17.094C10.1246 18.3126 11.7767 18.998 13.5 19Z" fill="black"/>
</g>
<defs>
<clipPath id="clip0_1_332">
<rect width="32" height="32" fill="white"/>
</clipPath>
</defs>
</svg>
